<svg id="Layer_1" data-name="Layer 1" xmlns="http://www.w3.org/2000/svg" viewBox="0 0 10.08 10.08"><defs><style>.cls-1{fill:#f5eb76;}</style></defs><title>add</title><path class="cls-1" d="M454.2,594.91h-7.68a1.2,1.2,0,0,0-1.2,1.2v7.68a1.2,1.2,0,0,0,1.2,1.2h7.68a1.2,1.2,0,0,0,1.2-1.2v-7.68A1.19,1.19,0,0,0,454.2,594.91Zm-.91,5.66a.21.21,0,0,1-.23.23h-1.79c-.06,0-.09,0-.09.08v1.77a.21.21,0,0,1-.23.23h-1.18a.21.21,0,0,1-.23-.23v-1.77a.07.07,0,0,0-.08-.08h-1.8a.21.21,0,0,1-.23-.23v-1.2a.21.21,0,0,1,.23-.23h1.8a.07.07,0,0,0,.08-.08v-1.81a.21.21,0,0,1,.23-.23H451a.21.21,0,0,1,.23.23v1.81c0,.05,0,.08.09.08h1.79a.21.21,0,0,1,.23.23Z" transform="translate(-445.32 -594.91)"/></svg>