<svg id="Layer_1" data-name="Layer 1" xmlns="http://www.w3.org/2000/svg" viewBox="0 0 10.08 10.08"><defs><style>.cls-1{fill:#f5eb76;}</style></defs><title>arrow</title><path class="cls-1" d="M452.83,595h-6.08a2,2,0,0,0-2,2v6.08a2,2,0,0,0,2,2h6.08a2,2,0,0,0,2-2V597A2,2,0,0,0,452.83,595Zm.4,5.74a.32.32,0,0,1-.19.3l-5.93,2.61-.12,0c-.12,0-.18-.07-.18-.22V602a.3.3,0,0,1,.2-.28l3.91-1.59s.06,0,.06-.07,0,0-.06,0L447,598.4a.3.3,0,0,1-.2-.28v-1.47c0-.15.06-.23.18-.23l.12,0,5.93,2.61a.3.3,0,0,1,.19.3Z" transform="translate(-444.75 -595.03)"/></svg>